<svg
              width="15"
              height="20"
              viewBox="0 0 15 20"
              xmlns="http://www.w3.org/2000/svg"
            >
              <path
                className="svg"
                d="M3.82431 19.9737C4.05002 20.0776 4.28811 19.8527 4.14992 19.6665C3.39986 18.6561 2.68959 16.9558 3.82121 14.7661C5.70834 11.1146 6.85665 9.22335 6.85665 9.22335C6.85665 9.22335 7.46743 11.4304 9.1231 13.3928C10.7166 15.2815 11.5888 17.6568 10.1827 19.6356C10.0507 19.8213 10.2834 20.0404 10.5077 19.9411C12.2482 19.1704 14.2004 17.6246 14.4207 14.5484C14.5019 13.6084 14.3801 12.2924 13.7711 10.6317C12.988 8.52692 12.0253 7.54479 11.4682 7.12303C11.3016 6.99685 11.0425 7.10868 11.0562 7.29992C11.2185 9.57097 10.2314 10.1473 9.66955 8.84848C9.44516 8.32973 9.3143 7.43247 9.3143 6.33979C9.3143 4.52067 8.70454 2.64806 7.36024 1.12636C7.01065 0.730642 6.6016 0.360871 6.1323 0.0455439C5.9624 -0.0686391 5.71611 0.0461321 5.73167 0.231818C5.83489 1.46502 5.74137 4.9993 2.15904 9.22165C-1.08907 13.1384 0.169566 16.1464 0.616182 16.9611C1.47007 18.5218 2.66112 19.4384 3.82431 19.9737Z"
                fill="white"
              />
            </svg>