<svg
              width="15"
              height="15"
              viewBox="0 0 15 15"
              xmlns="http://www.w3.org/2000/svg"
            >
              <path
                className="svg"
                d="M1.25 15C1.25 15 0 15 0 13.75C0 12.5 1.25 8.75 7.5 8.75C13.75 8.75 15 12.5 15 13.75C15 15 13.75 15 13.75 15H1.25ZM7.5 7.5C8.49456 7.5 9.44839 7.10491 10.1517 6.40165C10.8549 5.69839 11.25 4.74456 11.25 3.75C11.25 2.75544 10.8549 1.80161 10.1517 1.09835C9.44839 0.395088 8.49456 0 7.5 0C6.50544 0 5.55161 0.395088 4.84835 1.09835C4.14509 1.80161 3.75 2.75544 3.75 3.75C3.75 4.74456 4.14509 5.69839 4.84835 6.40165C5.55161 7.10491 6.50544 7.5 7.5 7.5V7.5Z"
                fill="white"
              />
            </svg>