<svg
                width="20"
                height="20"
                viewBox="0 0 20 20"
                fill="none"
                xmlns="http://www.w3.org/2000/svg"
              >
                <path
                  d="M5.95608 0.985135C4.25698 1.96603 3.04148 3.5501 2.53373 5.44518C2.02587 7.34025 2.2866 9.31977 3.26749 11.0189C4.57582 13.2848 7.01532 14.6925 9.63426 14.6925C10.4612 14.6925 11.2817 14.5501 12.0595 14.277L15.3637 20L17.7196 18.6398L14.416 12.9178C15.5319 11.963 16.3353 10.6967 16.7237 9.2473C17.2314 7.35222 16.9707 5.37281 15.9898 3.67361C14.6816 1.40768 12.242 0 9.62316 0C8.3404 0 7.07234 0.340602 5.95608 0.985135ZM13.6339 5.03384C14.2515 6.10364 14.4156 7.35005 14.0959 8.54324C13.7762 9.73644 13.0109 10.7338 11.9411 11.3514C11.2379 11.7574 10.4402 11.972 9.63426 11.972C7.98424 11.972 6.44739 11.0856 5.62353 9.65864C5.00587 8.58884 4.84177 7.34254 5.16159 6.14923C5.4813 4.95604 6.24662 3.95871 7.31642 3.34095C8.0195 2.93506 8.81724 2.72047 9.62316 2.72047C11.2733 2.72047 12.81 3.6069 13.6339 5.03384Z"
                  fill="white"
                />
              </svg>