<svg
              width="26"
              height="25"
              viewBox="0 0 26 25"
              xmlns="http://www.w3.org/2000/svg"
            >
              <path
                className="svg"
                d="M21.778 14.9338L18.0368 10.6697L15.5571 11.7619L15.5571 11.7619C15.4877 11.3528 15.3188 10.9622 15.0586 10.6372L17.5435 9.54266L16.9217 3.90786C16.8675 3.41316 16.2807 3.18486 15.9065 3.51352L11.644 7.25089L12.7384 9.73581C12.3256 9.80383 11.9387 9.97415 11.6099 10.2329L10.5154 7.74794L4.88062 8.36988C4.386 8.424 4.15763 9.01078 4.48631 9.38496L8.22367 13.6475L10.7086 12.5531C10.7766 12.9659 10.947 13.3528 11.2057 13.6816L8.72076 14.7761L9.34263 20.4109C9.39676 20.9056 9.98356 21.1339 10.3578 20.8052L14.6203 17.0678L13.5259 14.5829C13.9372 14.5188 14.3256 14.3446 14.6529 14.0896L14.6529 14.0896L15.7451 16.5693L21.3837 15.9489C21.8783 15.8948 22.1067 15.3079 21.778 14.9338ZM12.6874 13.3042C12.0517 13.0572 11.7445 12.3397 11.9873 11.7146C12.2301 11.0897 12.9408 10.7675 13.5768 11.0146C14.2057 11.2588 14.5222 11.9727 14.2769 12.6041C14.0332 13.2315 13.32 13.5499 12.6874 13.3042Z"
                fill="white"
              />
            </svg>